# Blender v2.82 (sub 7) OBJ File: 'untitled.blend'
# www.blender.org
mtllib airport.mtl
o untitled.003_untitled.005
v 441.204102 50.349159 510.914764
v 387.149353 50.349209 490.281189
v 411.531799 50.349331 426.445374
v 465.584381 50.349281 447.079132
v 441.204102 50.349159 510.914764
v 411.531799 50.349331 426.445374
v 618.626953 39.431267 439.839111
v 596.738892 39.431156 497.148743
v 465.584381 39.431278 447.079102
v 549.887817 39.431332 413.598633
v 618.626953 39.431267 439.839111
v 465.584381 39.431278 447.079102
v 549.887817 39.431332 413.598633
v 465.584381 39.431278 447.079102
v 433.419861 39.431438 369.135681
v 433.419861 39.431438 369.135681
v 465.584381 39.431278 447.079102
v 411.531799 39.431328 426.445343
v 433.994202 108.655693 485.730316
v 409.518768 108.655716 476.386383
v 418.865082 108.655762 451.912964
v 443.342682 108.655739 461.256714
v 433.994202 108.655693 485.730316
v 418.865082 108.655762 451.912964
v 480.035065 37.029278 466.149384
v 573.252014 37.029190 501.735748
v 573.252014 34.627232 501.735748
v 480.035065 34.627319 466.149384
v 480.035065 37.029278 466.149384
v 573.252014 34.627232 501.735748
v 416.596191 104.943649 446.839539
v 448.415894 104.943619 458.985657
v 443.342682 108.655739 461.256714
v 418.865082 108.655762 451.912964
v 416.596191 104.943649 446.839539
v 443.342682 108.655739 461.256714
v 433.994171 50.349209 485.730225
v 409.518768 50.349232 476.386292
v 409.518768 94.025604 476.386353
v 433.994202 94.025574 485.730286
v 433.994171 50.349209 485.730225
v 409.518768 94.025604 476.386353
v 409.518768 50.349232 476.386292
v 418.865051 50.349277 451.912842
v 418.865082 94.025650 451.912933
v 409.518768 94.025604 476.386353
v 409.518768 50.349232 476.386292
v 418.865082 94.025650 451.912933
v 418.865051 50.349277 451.912842
v 443.342651 50.349255 461.256592
v 443.342651 94.025620 461.256683
v 418.865082 94.025650 451.912933
v 418.865051 50.349277 451.912842
v 443.342651 94.025620 461.256683
v 443.342651 50.349255 461.256592
v 433.994171 50.349209 485.730225
v 433.994202 94.025574 485.730286
v 443.342651 94.025620 461.256683
v 443.342651 50.349255 461.256592
v 433.994202 94.025574 485.730286
v 387.149353 39.431206 490.281158
v 411.531799 39.431328 426.445343
v 411.531799 50.349331 426.445374
v 387.149353 50.349209 490.281189
v 387.149353 39.431206 490.281158
v 411.531799 50.349331 426.445374
v 411.531799 39.431328 426.445343
v 465.584381 39.431278 447.079102
v 465.584381 50.349281 447.079132
v 411.531799 50.349331 426.445374
v 411.531799 39.431328 426.445343
v 465.584381 50.349281 447.079132
v 554.483337 34.409073 401.564880
v 438.015411 34.409184 357.101898
v 438.015411 32.007221 357.101898
v 554.483337 32.007114 401.564880
v 554.483337 34.409073 401.564880
v 438.015411 32.007221 357.101898
v 596.738892 21.962357 497.148712
v 465.584351 21.962479 447.079071
v 465.584381 39.431278 447.079102
v 596.738892 39.431156 497.148743
v 596.738892 21.962357 497.148712
v 465.584381 39.431278 447.079102
v 465.584351 21.962479 447.079071
v 441.204071 21.962357 510.914703
v 441.204102 39.431156 510.914734
v 465.584381 39.431278 447.079102
v 465.584351 21.962479 447.079071
v 441.204102 39.431156 510.914734
v 441.204071 21.962357 510.914703
v 387.149353 21.962406 490.281128
v 387.149353 39.431206 490.281158
v 441.204102 39.431156 510.914734
v 441.204071 21.962357 510.914703
v 387.149353 39.431206 490.281158
v 433.419861 21.962639 369.135651
v 433.419861 39.431438 369.135681
v 411.531799 39.431328 426.445343
v 387.149353 21.962406 490.281128
v 433.419861 21.962639 369.135651
v 411.531799 39.431328 426.445343
v 387.149353 21.962406 490.281128
v 411.531799 39.431328 426.445343
v 387.149353 39.431206 490.281158
v 433.419861 21.962639 369.135651
v 549.887756 21.962530 413.598602
v 549.887817 39.431332 413.598633
v 433.419861 39.431438 369.135681
v 433.419861 21.962639 369.135651
v 549.887817 39.431332 413.598633
v 549.887817 39.431332 413.598633
v 549.887756 21.962530 413.598602
v 618.626953 21.962467 439.839050
v 618.626953 39.431267 439.839111
v 549.887817 39.431332 413.598633
v 618.626953 21.962467 439.839050
v 618.626953 21.962467 439.839050
v 596.738892 21.962357 497.148712
v 596.738892 39.431156 497.148743
v 618.626953 39.431267 439.839111
v 618.626953 21.962467 439.839050
v 596.738892 39.431156 497.148743
v 441.204102 39.431156 510.914734
v 387.149353 39.431206 490.281158
v 387.149353 50.349209 490.281189
v 441.204102 50.349159 510.914764
v 441.204102 39.431156 510.914734
v 387.149353 50.349209 490.281189
v 465.584381 39.431278 447.079102
v 441.204102 39.431156 510.914734
v 441.204102 50.349159 510.914764
v 465.584381 50.349281 447.079132
v 465.584381 39.431278 447.079102
v 441.204102 50.349159 510.914764
v 436.265076 104.943558 490.801392
v 404.445374 104.943588 478.655273
v 409.518768 108.655716 476.386383
v 433.994202 108.655693 485.730316
v 436.265076 104.943558 490.801392
v 409.518768 108.655716 476.386383
v 448.415894 104.943619 458.985657
v 436.265076 104.943558 490.801392
v 433.994202 108.655693 485.730316
v 443.342682 108.655739 461.256714
v 448.415894 104.943619 458.985657
v 433.994202 108.655693 485.730316
v 404.445374 104.943588 478.655273
v 416.596191 104.943649 446.839539
v 418.865082 108.655762 451.912964
v 409.518768 108.655716 476.386383
v 404.445374 104.943588 478.655273
v 418.865082 108.655762 451.912964
v 382.553650 37.029224 502.312744
v 436.606384 37.029175 522.948669
v 436.606384 34.627213 522.948669
v 382.553650 34.627262 502.312744
v 382.553650 37.029224 502.312744
v 436.606384 34.627213 522.948669
v 387.149353 34.627289 490.281128
v 387.149353 37.029247 490.281158
v 382.553650 37.029224 502.312744
v 382.553650 34.627262 502.312744
v 387.149353 34.627289 490.281128
v 382.553650 37.029224 502.312744
v 441.204102 34.627235 510.914734
v 387.149353 34.627289 490.281128
v 382.553650 34.627262 502.312744
v 436.606384 34.627213 522.948669
v 441.204102 34.627235 510.914734
v 382.553650 34.627262 502.312744
v 441.204102 37.029198 510.914734
v 441.204102 34.627235 510.914734
v 436.606384 34.627213 522.948669
v 436.606384 37.029175 522.948669
v 441.204102 37.029198 510.914734
v 436.606384 34.627213 522.948669
v 577.768921 37.029213 489.906128
v 577.768921 34.627254 489.906128
v 573.252014 34.627232 501.735748
v 573.252014 37.029190 501.735748
v 577.768921 37.029213 489.906128
v 573.252014 34.627232 501.735748
v 577.768921 34.627254 489.906128
v 484.554352 34.627342 454.321716
v 480.035065 34.627319 466.149384
v 573.252014 34.627232 501.735748
v 577.768921 34.627254 489.906128
v 480.035065 34.627319 466.149384
v 484.554352 34.627342 454.321716
v 484.554352 37.029301 454.321747
v 480.035065 37.029278 466.149384
v 480.035065 34.627319 466.149384
v 484.554352 34.627342 454.321716
v 480.035065 37.029278 466.149384
v 484.554352 37.029301 454.321747
v 577.768921 37.029213 489.906128
v 573.252014 37.029190 501.735748
v 480.035065 37.029278 466.149384
v 484.554352 37.029301 454.321747
v 573.252014 37.029190 501.735748
v 433.994202 94.025574 485.730286
v 409.518768 94.025604 476.386353
v 404.445374 104.943588 478.655273
v 436.265076 104.943558 490.801392
v 433.994202 94.025574 485.730286
v 404.445374 104.943588 478.655273
v 409.518768 94.025604 476.386353
v 418.865082 94.025650 451.912933
v 416.596191 104.943649 446.839539
v 404.445374 104.943588 478.655273
v 409.518768 94.025604 476.386353
v 416.596191 104.943649 446.839539
v 418.865082 94.025650 451.912933
v 443.342651 94.025620 461.256683
v 448.415894 104.943619 458.985657
v 416.596191 104.943649 446.839539
v 418.865082 94.025650 451.912933
v 448.415894 104.943619 458.985657
v 443.342651 94.025620 461.256683
v 433.994202 94.025574 485.730286
v 436.265076 104.943558 490.801392
v 448.415894 104.943619 458.985657
v 443.342651 94.025620 461.256683
v 436.265076 104.943558 490.801392
v 549.887817 34.409050 413.598633
v 433.419861 34.409161 369.135681
v 438.015411 34.409184 357.101898
v 554.483337 34.409073 401.564880
v 549.887817 34.409050 413.598633
v 438.015411 34.409184 357.101898
v 433.419861 34.409161 369.135681
v 433.419861 32.007198 369.135681
v 438.015411 32.007221 357.101898
v 438.015411 34.409184 357.101898
v 433.419861 34.409161 369.135681
v 438.015411 32.007221 357.101898
v 433.419861 32.007198 369.135681
v 549.887817 32.007092 413.598602
v 554.483337 32.007114 401.564880
v 438.015411 32.007221 357.101898
v 433.419861 32.007198 369.135681
v 554.483337 32.007114 401.564880
v 549.887817 32.007092 413.598602
v 549.887817 34.409050 413.598633
v 554.483337 34.409073 401.564880
v 554.483337 32.007114 401.564880
v 549.887817 32.007092 413.598602
v 554.483337 34.409073 401.564880
v 387.149353 37.029247 490.281158
v 441.204102 37.029198 510.914734
v 436.606384 37.029175 522.948669
v 382.553650 37.029224 502.312744
v 387.149353 37.029247 490.281158
v 436.606384 37.029175 522.948669
vt 0.000000 0.999512
vt 0.999512 0.999512
vt 0.999512 0.000000
vt 0.000000 0.000000
vt 0.000000 0.999512
vt 0.999512 0.000000
vt 0.000000 -0.000488
vt 0.000000 0.999512
vt 0.707031 0.999512
vt 0.370605 -0.000488
vt 0.000000 -0.000488
vt 0.707031 0.999512
vt 0.370605 -0.000488
vt 0.707031 0.999512
vt 0.999512 -0.000488
vt 0.999512 -0.000488
vt 0.707031 0.999512
vt 0.999512 0.999512
vt -0.000488 0.999512
vt 0.999512 0.999512
vt 0.999512 -0.000488
vt 0.000000 -0.000488
vt -0.000488 0.999512
vt 0.999512 -0.000488
vt 3.309570 0.444580
vt 7.526367 0.444580
vt 7.526367 0.419922
vt 3.309570 0.419922
vt 3.309570 0.444580
vt 7.526367 0.419922
vt 3.277344 0.501953
vt 1.016602 0.501953
vt 1.242188 0.576660
vt 3.050781 0.576660
vt 3.277344 0.501953
vt 1.242188 0.576660
vt -0.075195 -0.370850
vt 0.999023 -0.370850
vt 0.999023 0.076904
vt -0.075195 0.076904
vt -0.075195 -0.370850
vt 0.999023 0.076904
vt -0.084961 -0.175781
vt 0.999023 -0.175781
vt 0.999023 0.067627
vt -0.084961 0.067627
vt -0.084961 -0.175781
vt 0.999023 0.067627
vt 0.999023 -0.370850
vt -0.075195 -0.370850
vt -0.075195 0.076904
vt 0.999023 0.076904
vt 0.999023 -0.370850
vt -0.075195 0.076904
vt 0.999023 -0.175781
vt -0.084961 -0.175781
vt -0.084961 0.067627
vt 0.999023 0.067627
vt 0.999023 -0.175781
vt -0.084961 0.067627
vt 4.116211 0.699707
vt 1.958984 0.699707
vt 1.958984 0.783447
vt 4.116211 0.783447
vt 4.116211 0.699707
vt 1.958984 0.783447
vt 1.978516 0.696045
vt 0.000000 0.696045
vt 0.000000 0.789063
vt 1.978516 0.789063
vt 1.978516 0.696045
vt 0.000000 0.789063
vt 5.270508 0.440430
vt 0.000000 0.440430
vt 0.000000 0.416016
vt 5.270508 0.416016
vt 5.270508 0.440430
vt 0.000000 0.416016
vt 3.988281 -0.000244
vt -0.000977 -0.000244
vt -0.000977 0.138916
vt 3.988281 0.138916
vt 3.988281 -0.000244
vt -0.000977 0.138916
vt 2.010742 -0.045898
vt -0.061523 -0.045898
vt -0.061523 0.081787
vt 2.010742 0.081787
vt 2.010742 -0.045898
vt -0.061523 0.081787
vt 1.030273 0.000000
vt -0.075195 0.000000
vt -0.075195 0.092285
vt 1.030273 0.092285
vt 1.030273 0.000000
vt -0.075195 0.092285
vt -0.075195 -0.000244
vt -0.075195 0.093018
vt 1.861328 0.093018
vt 4.019531 0.000000
vt -0.075195 -0.000244
vt 1.861328 0.093018
vt 4.019531 0.000000
vt 1.861328 0.093018
vt 4.019531 0.093018
vt 3.081055 0.263672
vt 0.000000 0.263672
vt -0.000977 0.381592
vt 3.081055 0.381592
vt 3.081055 0.263672
vt -0.000977 0.381592
vt 2.041992 0.843750
vt 2.041992 0.702637
vt -0.086914 0.702637
vt -0.086914 0.843750
vt 2.041992 0.843750
vt -0.086914 0.702637
vt 1.953125 0.705811
vt 0.000000 0.705811
vt -0.000977 0.843750
vt 1.953125 0.843750
vt 1.953125 0.705811
vt -0.000977 0.843750
vt 0.000000 0.696045
vt 1.978516 0.696045
vt 1.978516 0.789063
vt 0.000000 0.789063
vt 0.000000 0.696045
vt 1.978516 0.789063
vt 1.958984 0.699707
vt 4.116211 0.699707
vt 4.116211 0.783447
vt 1.958984 0.783447
vt 1.958984 0.699707
vt 4.116211 0.783447
vt 1.016602 0.501953
vt 3.277344 0.501953
vt 3.050781 0.576660
vt 1.242188 0.576660
vt 1.016602 0.501953
vt 3.050781 0.576660
vt 3.277344 0.501953
vt 1.016602 0.501953
vt 1.242188 0.576660
vt 3.050781 0.576660
vt 3.277344 0.501953
vt 1.242188 0.576660
vt 1.016602 0.501953
vt 3.277344 0.501953
vt 3.050781 0.576660
vt 1.242188 0.576660
vt 1.016602 0.501953
vt 3.050781 0.576660
vt -0.000977 0.444580
vt 2.452148 0.444580
vt 2.452148 0.419922
vt -0.000977 0.419922
vt -0.000977 0.444580
vt 2.452148 0.419922
vt 0.875000 0.000000
vt 0.875000 0.000000
vt 0.875000 0.000000
vt 0.875000 0.000000
vt 0.875000 0.000000
vt 0.875000 0.000000
vt 0.875000 0.000000
vt 0.875000 0.000000
vt 0.875000 0.000000
vt 0.875000 0.000000
vt 0.875000 0.000000
vt 0.875000 0.000000
vt 0.875000 0.000000
vt 0.875000 0.000000
vt 0.875000 0.000000
vt 0.875000 0.000000
vt 0.875000 0.000000
vt 0.875000 0.000000
vt 0.875000 0.000000
vt 0.875000 0.000000
vt 0.875000 0.000000
vt 0.875000 0.000000
vt 0.875000 0.000000
vt 0.875000 0.000000
vt 0.875000 0.000000
vt 0.875000 0.000000
vt 0.875000 0.000000
vt 0.875000 0.000000
vt 0.875000 0.000000
vt 0.875000 0.000000
vt 0.875000 0.000000
vt 0.875000 0.000000
vt 0.875000 0.000000
vt 0.875000 0.000000
vt 0.875000 0.000000
vt 0.875000 0.000000
vt 0.875000 0.000000
vt 0.875000 0.000000
vt 0.875000 0.000000
vt 0.875000 0.000000
vt 0.875000 0.000000
vt 0.875000 0.000000
vt 0.875000 0.000000
vt 0.875000 0.000000
vt 0.875000 0.000000
vt 0.875000 0.000000
vt 0.875000 0.000000
vt 0.875000 0.000000
vt 0.875000 0.000000
vt 0.875000 0.000000
vt 0.875000 0.000000
vt 0.875000 0.000000
vt 0.875000 0.000000
vt 0.875000 0.000000
vt 0.875000 0.000000
vt 0.875000 0.000000
vt 0.875000 0.000000
vt 0.875000 0.000000
vt 0.875000 0.000000
vt 0.875000 0.000000
vt 0.875000 0.000000
vt 0.875000 0.000000
vt 0.875000 0.000000
vt 0.875000 0.000000
vt 0.875000 0.000000
vt 0.875000 0.000000
vt 0.875000 0.000000
vt 0.875000 0.000000
vt 0.875000 0.000000
vt 0.875000 0.000000
vt 0.875000 0.000000
vt 0.875000 0.000000
vt 0.875000 0.000000
vt 0.875000 0.000000
vt 0.875000 0.000000
vt 0.875000 0.000000
vt 0.875000 0.000000
vt 0.875000 0.000000
vt 0.875000 0.000000
vt 0.875000 0.000000
vt 0.875000 0.000000
vt 0.875000 0.000000
vt 0.875000 0.000000
vt 0.875000 0.000000
vt 0.875000 0.000000
vt 0.875000 0.000000
vt 0.875000 0.000000
vt 0.875000 0.000000
vt 0.875000 0.000000
vt 0.875000 0.000000
vt 0.875000 0.000000
vt 0.875000 0.000000
vt 0.875000 0.000000
vt 0.875000 0.000000
vt 0.875000 0.000000
vt 0.875000 0.000000
vn 0.0000 -1.0000 0.0000
vn 0.3566 0.0000 -0.9342
vn -0.2448 -0.7270 0.6414
vn 0.9342 0.0000 0.3568
vn -0.3566 0.0000 0.9342
vn -0.9341 0.0000 -0.3568
vn -0.9342 0.0000 -0.3568
vn 0.2449 -0.7269 -0.6416
vn 0.2450 -0.7267 -0.6417
vn -0.6414 -0.7270 -0.2449
vn -0.6416 -0.7269 -0.2451
vn 0.6415 -0.7269 0.2450
vn 0.6415 -0.7270 0.2450
vn 0.9341 0.0000 0.3568
vn 0.0000 1.0000 0.0000
vn -0.9341 0.0000 -0.3569
vn -0.9342 0.0000 -0.3567
vn 0.9341 0.0000 0.3569
vn 0.3356 0.3386 -0.8790
vn 0.3356 0.3385 -0.8791
vn 0.8790 0.3386 0.3357
vn 0.8790 0.3387 0.3357
vn -0.3355 0.3387 0.8790
vn -0.8789 0.3387 -0.3357
vn -0.8790 0.3386 -0.3357
vn 0.9342 0.0000 0.3567
usemtl Material.028_2B68BF8F_c.bmp.002
s 1
f 1/1/1 2/2/1 3/3/1
f 4/4/1 5/5/1 6/6/1
f 7/7/1 8/8/1 9/9/1
f 10/10/1 11/11/1 12/12/1
f 13/13/1 14/14/1 15/15/1
f 16/16/1 17/17/1 18/18/1
f 19/19/1 20/20/1 21/21/1
f 22/22/1 23/23/1 24/24/1
usemtl Material.027_4F37A43F_c.bmp.002
f 25/25/2 26/26/2 27/27/2
f 28/28/2 29/29/2 30/30/2
f 31/31/3 32/32/3 33/33/3
f 34/34/3 35/35/3 36/36/3
f 37/37/2 38/38/2 39/39/2
f 40/40/2 41/41/2 42/42/2
f 43/43/4 44/44/4 45/45/4
f 46/46/4 47/47/4 48/48/4
f 49/49/5 50/50/5 51/51/5
f 52/52/5 53/53/5 54/54/5
f 55/55/6 56/56/6 57/57/6
f 58/58/6 59/59/6 60/60/6
f 61/61/4 62/62/4 63/63/4
f 64/64/4 65/65/4 66/66/4
f 67/67/5 68/68/5 69/69/5
f 70/70/5 71/71/5 72/72/5
f 73/73/5 74/74/5 75/75/5
f 76/76/5 77/77/5 78/78/5
f 79/79/2 80/80/2 81/81/2
f 82/82/2 83/83/2 84/84/2
f 85/85/7 86/86/7 87/87/7
f 88/88/7 89/89/7 90/90/7
f 91/91/2 92/92/2 93/93/2
f 94/94/2 95/95/2 96/96/2
f 97/97/4 98/98/4 99/99/4
f 100/100/4 101/101/4 102/102/4
f 103/103/4 104/104/4 105/105/4
f 106/106/5 107/107/5 108/108/5
f 109/109/5 110/110/5 111/111/5
f 112/112/5 113/113/5 114/114/5
f 115/115/5 116/116/5 117/117/5
f 118/118/7 119/119/7 120/120/7
f 121/121/7 122/122/7 123/123/7
f 124/124/2 125/125/2 126/126/2
f 127/127/2 128/128/2 129/129/2
f 130/130/7 131/131/7 132/132/7
f 133/133/7 134/134/7 135/135/7
f 136/136/8 137/137/8 138/138/8
f 139/139/9 140/140/9 141/141/9
f 142/142/10 143/143/10 144/144/10
f 145/145/11 146/146/11 147/147/11
f 148/148/12 149/149/12 150/150/12
f 151/151/13 152/152/13 153/153/13
f 154/154/2 155/155/2 156/156/2
f 157/157/2 158/158/2 159/159/2
usemtl Material.199
f 160/160/14 161/161/14 162/162/14
f 163/163/14 164/164/14 165/165/14
f 166/166/15 167/167/15 168/168/15
f 169/169/15 170/170/15 171/171/15
f 172/172/16 173/173/16 174/174/16
f 175/175/16 176/176/16 177/177/16
f 178/178/17 179/179/17 180/180/17
f 181/181/17 182/182/17 183/183/17
f 184/184/15 185/185/15 186/186/15
f 187/187/15 188/188/15 189/189/15
f 190/190/18 191/191/18 192/192/18
f 193/193/18 194/194/18 195/195/18
f 196/196/1 197/197/1 198/198/1
f 199/199/1 200/200/1 201/201/1
f 202/202/19 203/203/19 204/204/19
f 205/205/20 206/206/20 207/207/20
f 208/208/21 209/209/21 210/210/21
f 211/211/22 212/212/22 213/213/22
f 214/214/23 215/215/23 216/216/23
f 217/217/23 218/218/23 219/219/23
f 220/220/24 221/221/24 222/222/24
f 223/223/25 224/224/25 225/225/25
f 226/226/1 227/227/1 228/228/1
f 229/229/1 230/230/1 231/231/1
f 232/232/26 233/233/26 234/234/26
f 235/235/26 236/236/26 237/237/26
f 238/238/15 239/239/15 240/240/15
f 241/241/15 242/242/15 243/243/15
f 244/244/17 245/245/17 246/246/17
f 247/247/17 248/248/17 249/249/17
f 250/250/1 251/251/1 252/252/1
f 253/253/1 254/254/1 255/255/1
