# Blender v2.82 (sub 7) OBJ File: 'untitled.blend'
# www.blender.org
mtllib hotel.mtl
o untitled.006_untitled.007
v 645.615112 77.245308 -10.958817
v 723.037354 77.245308 3.897572
v 724.559509 77.245300 189.033554
v 647.392700 77.245300 205.178391
v 645.615112 77.245308 -10.958817
v 724.559509 77.245300 189.033554
v 645.615112 77.245308 -10.958817
v 722.273010 77.245316 -88.889908
v 768.945190 77.245308 -42.772419
v 723.037354 77.245308 3.897572
v 645.615112 77.245308 -10.958817
v 768.945190 77.245308 -42.772419
v 647.392700 77.245300 205.178391
v 724.559509 77.245300 189.033554
v 771.227295 77.245300 234.932648
v 725.321594 77.245293 281.821045
v 647.392700 77.245300 205.178391
v 771.227295 77.245300 234.932648
v 725.321594 22.648006 281.821045
v 647.392700 22.648008 205.178391
v 647.392700 77.245300 205.178391
v 725.321594 77.245293 281.821045
v 725.321594 22.648006 281.821045
v 647.392700 77.245300 205.178391
v 771.227295 22.648008 234.932648
v 725.321594 22.648006 281.821045
v 725.321594 77.245293 281.821045
v 771.227295 77.245300 234.932648
v 771.227295 22.648008 234.932648
v 725.321594 77.245293 281.821045
v 724.559509 22.648010 189.033554
v 771.227295 22.648008 234.932648
v 771.227295 77.245300 234.932648
v 724.559509 77.245300 189.033554
v 724.559509 22.648010 189.033554
v 771.227295 77.245300 234.932648
v 723.037354 22.648018 3.897569
v 724.559509 22.648010 189.033554
v 724.559509 77.245300 189.033554
v 723.037354 77.245308 3.897572
v 723.037354 22.648018 3.897569
v 724.559509 77.245300 189.033554
v 768.945190 22.648020 -42.772423
v 723.037354 22.648018 3.897569
v 723.037354 77.245308 3.897572
v 768.945190 77.245308 -42.772419
v 768.945190 22.648020 -42.772423
v 723.037354 77.245308 3.897572
v 722.273010 22.648022 -88.889908
v 768.945190 22.648020 -42.772423
v 768.945190 77.245308 -42.772419
v 722.273010 77.245316 -88.889908
v 722.273010 22.648022 -88.889908
v 768.945190 77.245308 -42.772419
v 645.615112 22.648018 -10.958819
v 722.273010 22.648022 -88.889908
v 722.273010 77.245316 -88.889908
v 645.615112 77.245308 -10.958817
v 645.615112 22.648018 -10.958819
v 722.273010 77.245316 -88.889908
v 647.392700 22.648008 205.178391
v 645.615112 22.648018 -10.958819
v 645.615112 77.245308 -10.958817
v 647.392700 77.245300 205.178391
v 647.392700 22.648008 205.178391
v 645.615112 77.245308 -10.958817
vt 0.061523 0.000000
vt 0.125000 0.999023
vt 0.883789 0.999023
vt 0.947266 0.000000
vt 0.061523 0.000000
vt 0.883789 0.999023
vt 0.999512 0.936035
vt 0.999512 0.000000
vt -0.000488 0.000000
vt -0.000488 0.561523
vt 0.999512 0.936035
vt -0.000488 0.000000
vt 0.999512 0.864746
vt -0.000488 0.518555
vt 0.000000 -0.000488
vt 0.999512 -0.000488
vt 0.999512 0.864746
vt 0.000000 -0.000488
vt 0.000000 -0.069824
vt 1.999512 -0.069824
vt 1.999512 0.999512
vt 0.000000 0.999512
vt 0.000000 -0.069824
vt 1.999512 0.999512
vt 0.999512 -0.069824
vt 0.000000 -0.069824
vt 0.000000 0.999512
vt 0.999512 0.999512
vt 0.999512 -0.069824
vt 0.000000 0.999512
vt 0.000000 -0.069824
vt 0.999512 -0.069824
vt 0.999512 0.999512
vt 0.000000 0.999512
vt 0.000000 -0.069824
vt 0.999512 0.999512
vt 2.999512 -0.069824
vt 0.000000 -0.069824
vt 0.000000 0.999512
vt 2.999512 0.999512
vt 2.999512 -0.069824
vt 0.000000 0.999512
vt 3.999512 -0.069824
vt 2.999512 -0.069824
vt 2.999512 0.999512
vt 3.999512 0.999512
vt 3.999512 -0.069824
vt 2.999512 0.999512
vt 4.999512 -0.069824
vt 3.999512 -0.069824
vt 3.999512 0.999512
vt 4.999512 0.999512
vt 4.999512 -0.069824
vt 3.999512 0.999512
vt 2.999512 -0.069824
vt 4.999512 -0.069824
vt 4.999512 0.999512
vt 2.999512 0.999512
vt 2.999512 -0.069824
vt 4.999512 0.999512
vt 1.999512 -0.069824
vt 5.999512 -0.069824
vt 5.999512 0.999512
vt 1.999512 0.999512
vt 1.999512 -0.069824
vt 5.999512 0.999512
vn 0.0000 -1.0000 0.0000
vn 0.7012 0.0000 -0.7129
vn -0.7145 0.0000 -0.6996
vn -0.7012 0.0000 0.7129
vn -0.9999 0.0000 0.0082
vn -0.7129 0.0000 -0.7013
vn -0.7028 0.0000 0.7113
vn 0.7129 0.0000 0.7013
vn 0.9999 0.0000 -0.0082
usemtl Material.143_2B68BF8F_c.bmp.002
s 1
f 1/1/1 2/2/1 3/3/1
f 4/4/1 5/5/1 6/6/1
f 7/7/1 8/8/1 9/9/1
f 10/10/1 11/11/1 12/12/1
f 13/13/1 14/14/1 15/15/1
f 16/16/1 17/17/1 18/18/1
usemtl Material.142_481EB30_c.bmp.002
f 19/19/2 20/20/2 21/21/2
f 22/22/2 23/23/2 24/24/2
f 25/25/3 26/26/3 27/27/3
f 28/28/3 29/29/3 30/30/3
f 31/31/4 32/32/4 33/33/4
f 34/34/4 35/35/4 36/36/4
f 37/37/5 38/38/5 39/39/5
f 40/40/5 41/41/5 42/42/5
f 43/43/6 44/44/6 45/45/6
f 46/46/6 47/47/6 48/48/6
f 49/49/7 50/50/7 51/51/7
f 52/52/7 53/53/7 54/54/7
f 55/55/8 56/56/8 57/57/8
f 58/58/8 59/59/8 60/60/8
f 61/61/9 62/62/9 63/63/9
f 64/64/9 65/65/9 66/66/9
